{"title":"Soldiers of Fortune 2012 BRrip","uid":7448248,"size":725017192,"categoryP":"video","categoryS":"movies","magnet":"?xt=urn:btih:471d8700c8b0b0cb32440ebf65cd19fc11a6daa0&amp;dn=Soldiers+of+Fortune+2012+BRrip&amp;tr=udp%3A%2F%2Ftracker.openbittorrent.com%3A80&amp;tr=udp%3A%2F%2Fopen.demonii.com%3A1337&amp;tr=udp%3A%2F%2Ftracker.coppersurfer.tk%3A6969&amp;tr=udp%3A%2F%2Fexodus.desync.com%3A6969","seeders":0,"leechers":0,"uploader":"soulpunch","files":1,"time":1342435221,"description":"Wealthy thrill-seekers pay huge premiums to have themselves inserted into military adventures, only this time things don't go exactly to plan.\n\nFormat                                   : AVI\nFormat/Info                              : Audio Video Interleave\nFile size                                : 691 MiB\nDuration                                 : 1h 33mn\nOverall bit rate                         : 1 031 Kbps\nWriting application                      : Lavf54.3.100\n\nVideo\nID                                       : 0\nFormat                                   : MPEG-4 Visual\nFormat profile                           : Simple@L3\nFormat settings, BVOP                    : No\nFormat settings, QPel                    : No\nFormat settings, GMC                     : No warppoints\nFormat settings, Matrix                  : Default (H.263)\nCodec ID                                 : XVID\nCodec ID/Hint                            : XviD\nDuration                                 : 1h 33mn\nBit rate                                 : 956 Kbps\nWidth                                    : 640 pixels\nHeight                                   : 272 pixels\nDisplay aspect ratio                     : 2.35:1\nFrame rate                               : 23.976 fps\nColor space                              : YUV\nChroma subsampling                       : 4:2:0\nBit depth                                : 8 bits\nScan type                                : Progressive\nCompression mode                         : Lossy\nBits/(Pixel*Frame)                       : 0.229\nStream size                              : 641 MiB (93%)\nWriting library                          : XviD 64\n\nAudio\nID                                       : 1\nFormat                                   : AC-3\nFormat/Info                              : Audio Coding 3\nMode extension                           : CM (complete main)\nFormat settings, Endianness              : Big\nCodec ID                                 : 2000\nDuration                                 : 1h 33mn\nBit rate mode                            : Constant\nBit rate                                 : 64.0 Kbps\nChannel(s)                               : 2 channels\nChannel positions                        : Front: L R\nSampling rate                            : 48.0 KHz\nBit depth                                : 16 bits\nCompression mode                         : Lossy\nStream size                              : 42.9 MiB (6%)\nAlignment                                : Aligned on interleaves\nInterleave, duration                     : 32 ms (0.77 video frame) ","torrent":{"xt":"urn:btih:471d8700c8b0b0cb32440ebf65cd19fc11a6daa0","amp;dn":"Soldiers+of+Fortune+2012+BRrip","amp;tr":["udp%3A%2F%2Ftracker.openbittorrent.com%3A80","udp%3A%2F%2Fopen.demonii.com%3A1337","udp%3A%2F%2Ftracker.coppersurfer.tk%3A6969","udp%3A%2F%2Fexodus.desync.com%3A6969"],"infoHash":"471d8700c8b0b0cb32440ebf65cd19fc11a6daa0","infoHashBuffer":{"type":"Buffer","data":[71,29,135,0,200,176,176,203,50,68,14,191,101,205,25,252,17,166,218,160]},"announce":[],"urlList":[]}}